<svg xmlns="http://www.w3.org/2000/svg" width="98" height="105"><g data-name="Group 3646" transform="translate(-1337 -1232)"><circle data-name="Ellipse 73" cx="45" cy="45" r="45" transform="translate(1345 1247)" fill="#e1e0f9"/><circle data-name="Ellipse 69" cx="24.5" cy="24.5" r="24.5" transform="translate(1337 1232)" fill="#fdef00" opacity=".299"/><g data-name="837124" opacity=".696" fill="#352fd9"><path data-name="Path 2857" d="M1347.231 1321.404a1.627 1.627 0 0 1 1.7-.911c1.657.021 3.315 0 5.034 0v-33.644h-3.212c-1.388-.021-1.782-.394-1.782-1.782v-8.867c0-1.409.373-1.782 1.761-1.8h8.949c1.347 0 1.74.394 1.74 1.74v9.032c0 1.243-.414 1.637-1.637 1.657-1.036.021-2.092 0-3.19 0v33.581h5.469c0-.7.021-1.388-.021-2.072-.021-.166-.269-.373-.456-.435a2.847 2.847 0 0 1-2.154-2.9q-.062-4.848 0-9.7a2.824 2.824 0 0 1 2.672-3.025c.124-.021.269-.083.476-.145v-11c0-1.429.373-1.823 1.823-1.823 1.305 0 2.59-.021 3.895.021 1.015.021 1.554.684 1.347 1.533-.186.725-.725.911-1.388.932-1.015.021-2.03 0-3.107 0v10.382h3.581c-.1-.456-.228-.87-.311-1.305a4.345 4.345 0 0 1 3.978-5.179c4.143-.124 8.287-.145 12.43 0a4.411 4.411 0 0 1 3.978 5.863c-.062.186-.1.373-.186.621h2.279c-.062-.228-.1-.435-.166-.642a4.428 4.428 0 0 1 3.915-5.842c4.06-.145 8.121-.166 12.181-.021 3.252.1 5.055 2.983 4.06 6.091a3.091 3.091 0 0 0-.083.394h3.425V1291.8h-39.53a6.27 6.27 0 0 1-1.243-.083 1.194 1.194 0 0 1 0-2.32 5.224 5.224 0 0 1 .994-.083h40.355c1.637 0 1.947.311 1.947 1.927 0 3.4.021 6.795 0 10.192 0 .58.145.808.746.891a2.729 2.729 0 0 1 2.341 2.424 6.516 6.516 0 0 1 .062.911v9.032a2.947 2.947 0 0 1-2.2 3.211.86.86 0 0 0-.435.539c-.062.621-.021 1.264-.021 1.947h5.821v-33.58h-3.232c-1.388-.021-1.761-.373-1.761-1.782v-8.867c0-1.409.373-1.782 1.782-1.782h8.949c1.305 0 1.7.394 1.7 1.678.021 3.045.021 6.07 0 9.115 0 1.243-.414 1.616-1.657 1.637-1.036.021-2.092 0-3.17 0v33.643h4.413c1.678 0 2.009.311 2.009 1.968v3.729c0 1.367-.373 1.761-1.782 1.761-1.492.021-2.983 0-4.475 0h-76.562c-.829 0-1.616-.021-2.03-.912-.021-1.842-.021-3.728-.021-5.592zm22.684-.994h39.465v-2.341c-.249-.021-.414-.041-.58-.041-1.1-.021-2.217 0-3.315-.062a1.1 1.1 0 0 1-1.119-1.2 1.146 1.146 0 0 1 1.1-1.222 7.982 7.982 0 0 1 .994-.041c3.315 0 6.629.021 9.944-.021.331 0 .932-.269.953-.456.083-1.2.041-2.4.041-3.584h-55.5v2.8c0 1.284 0 1.284 1.284 1.284h36.212a6.268 6.268 0 0 1 1.077.062 1.07 1.07 0 0 1 .994 1.2 1.094 1.094 0 0 1-.974 1.16 6.15 6.15 0 0 1-1.077.062h-29.519c.02.846.02 1.568.02 2.4zm47.42-11.58a1.775 1.775 0 0 0 .062-.352c0-.808.021-1.6.021-2.4 0-1.326 0-1.326-1.326-1.326h-51.461c-.684 0-1.388-.021-2.072.021-.228.021-.6.249-.6.394-.041 1.222-.021 2.445-.021 3.667zm-67.577 16.548h79.8v-2.341h-79.8zm28.961-27.242v-.021c-1.823 0-3.646-.021-5.469 0a3.36 3.36 0 0 0-1.284.228 2.018 2.018 0 0 0-1.16 2.175 2.04 2.04 0 0 0 1.968 1.7c3.915.021 7.831.021 11.767 0a1.907 1.907 0 0 0 .87-.249 2.023 2.023 0 0 0-.891-3.833c-1.926-.017-3.853.004-5.8.004zm22.1 4.081v.021h5.386a3.434 3.434 0 0 0 1.222-.186 2.078 2.078 0 0 0 1.264-2.2 2.027 2.027 0 0 0-1.864-1.719c-4-.041-8-.021-12.015 0a1.727 1.727 0 0 0-.7.207 2.031 2.031 0 0 0 .829 3.853c1.968.069 3.915.028 5.883.028zm27.118-17.92v-7.354h-7.306v7.354zm-69.11.021v-7.33h-7.308v7.334zm5.78 36.088h2.693v-2.341h-2.693zm47.378.021h2.693v-2.362h-2.693z"/><path data-name="Path 2858" d="M1375.882 1259.048v7.023h27.573v-7.064h-2.221a5.376 5.376 0 0 1-1.16-.083 1.015 1.015 0 0 1-.912-1.181c.083-.435.559-1.077.87-1.1a45.342 45.342 0 0 1 5.034-.021c.642.021.87.621.891 1.222.021.746.021 1.492.021 2.237v11.6c0 1.574-.331 1.906-1.885 1.906h-28.832c-1.616 0-1.927-.331-1.927-1.968v-13.172c0-1.616.311-1.947 1.947-1.947h19.059a3.991 3.991 0 0 1 .5.021c.787.083 1.326.58 1.264 1.243a1.224 1.224 0 0 1-1.222 1.222c-.269.021-.559.021-.829.021h-17.319c-.251 0-.52.02-.852.041zm27.573 9.654h-27.552v2.341h27.553z"/><path data-name="Path 2859" d="M1380.542 1264.413c-.642 0-1.264.021-1.906 0a1.191 1.191 0 0 1-1.222-1.119 1.176 1.176 0 0 1 1.1-1.305 45.72 45.72 0 0 1 4.123 0 1.119 1.119 0 0 1 1.077 1.305 1.186 1.186 0 0 1-1.2 1.119h-1.968z"/></g></g></svg>