<svg xmlns="http://www.w3.org/2000/svg" width="98" height="105"><defs><clipPath id="a"><path data-name="Path 2795" d="M149.572-203.559a1.518 1.518 0 0 0-1.065-.441 1.517 1.517 0 0 0-1.065.441 1.512 1.512 0 0 0-.441 1.065 1.511 1.511 0 0 0 .441 1.065 1.518 1.518 0 0 0 1.065.442 1.518 1.518 0 0 0 1.065-.442 1.517 1.517 0 0 0 .441-1.065 1.518 1.518 0 0 0-.441-1.065z" transform="translate(-147 204)" fill="#352fd9"/></clipPath><clipPath id="b"><path data-name="Path 2797" d="M75.634-474.032h-3.616v-.3a4.525 4.525 0 0 0-4.52-4.52 4.525 4.525 0 0 0-4.52 4.52v.3h-1.657v-6.629h9.718a5.2 5.2 0 0 0 5.2-5.2V-506.8a5.2 5.2 0 0 0-5.2-5.2H42.262a5.2 5.2 0 0 0-5.2 5.2v20.942a5.2 5.2 0 0 0 5.2 5.2h9.115v6.629H35.411a4.08 4.08 0 0 0 .146-1.08v-7.056a1.507 1.507 0 0 0-1.507-1.507h-8.437a1.507 1.507 0 0 0-1.507 1.507v7.056a4.087 4.087 0 0 0 .146 1.08h-4.833l2.2-8.983a1.5 1.5 0 0 0-.078-.945 22.926 22.926 0 0 0 3.614-10.333 1.507 1.507 0 0 0-.687-1.361 1.507 1.507 0 0 0-1.523-.065 27.365 27.365 0 0 0-6.1 4.681 25.386 25.386 0 0 0-2.982-9.527 1.506 1.506 0 0 0-1.3-.739 1.506 1.506 0 0 0-1.3.741 25.4 25.4 0 0 0-2.959 9.435 26.426 26.426 0 0 0-6.124-4.6 1.506 1.506 0 0 0-1.512.082 1.507 1.507 0 0 0-.668 1.35 22.928 22.928 0 0 0 3.617 10.333 1.5 1.5 0 0 0-.078.945l2.2 8.983H1.507A1.507 1.507 0 0 0 0-472.526a1.507 1.507 0 0 0 1.507 1.507h.6v34.653a1.507 1.507 0 0 0 1.507 1.507 1.507 1.507 0 0 0 1.507-1.507v-26.216h12.055a1.507 1.507 0 0 0 1.507-1.507 1.507 1.507 0 0 0-1.507-1.507H5.123v-5.424H43.09v5.424H29.832a1.507 1.507 0 0 0-1.507 1.507 1.507 1.507 0 0 0 1.507 1.507H43.09v26.216a1.507 1.507 0 0 0 1.507 1.507h28.928a1.507 1.507 0 0 0 1.507-1.507v-34.653h.6a1.507 1.507 0 0 0 1.507-1.507 1.507 1.507 0 0 0-1.505-1.506zm-63.056-22.12a21.205 21.205 0 0 1 1.368 7.211 19.408 19.408 0 0 1-.445 4.061h-1.836a19.4 19.4 0 0 1-.45-4.059 21.259 21.259 0 0 1 1.363-7.213zm-6.445 10.534a18.881 18.881 0 0 1-2.511-5.608 20.484 20.484 0 0 1 4.6 4.694 1.508 1.508 0 0 0 .139.173q.09.735.229 1.479H6.666a15.375 15.375 0 0 1-.533-.738zm10.183 11.586H8.844l-1.921-7.835h11.314zm2.178-10.848h-1.923q.127-.68.212-1.353a1.516 1.516 0 0 0 .177-.214 21.228 21.228 0 0 1 4.56-4.709 18.838 18.838 0 0 1-2.492 5.538q-.252.371-.533.738zm14.049 9.768a1.081 1.081 0 0 1-1.08 1.08H28.2a1.081 1.081 0 0 1-1.08-1.08v-5.549h5.424zm33.448.778a1.508 1.508 0 0 1 1.509-1.506 1.508 1.508 0 0 1 1.5 1.506v.3h-3.009zM40.077-506.8a2.187 2.187 0 0 1 2.185-2.185h11.832l-7.124 7.124a1.507 1.507 0 0 0 0 2.131 1.5 1.5 0 0 0 1.065.441 1.5 1.5 0 0 0 1.065-.441l9.255-9.255h12.684a2.187 2.187 0 0 1 2.185 2.185v15.9H58.207l8.868-8.867a1.507 1.507 0 0 0 0-2.131 1.507 1.507 0 0 0-2.131 0l-10.7 10.7a1.5 1.5 0 0 0-.232.3H40.077zm2.185 23.127a2.187 2.187 0 0 1-2.185-2.185v-2.034h33.146v2.034a2.187 2.187 0 0 1-2.185 2.185zm16.046 3.013v6.629H54.39v-6.629zm13.711 42.789H46.1v-9.04h25.918zm0-12.053H46.1v-9.04h25.918zm0-12.053H46.1v-9.04h25.918z" transform="translate(0 512)" fill="#352fd9"/></clipPath><clipPath id="c"><path data-name="Path 2799" d="M384.572-219.889a1.512 1.512 0 0 0-1.065-.441 1.512 1.512 0 0 0-1.065.441 1.515 1.515 0 0 0-.441 1.065 1.518 1.518 0 0 0 .441 1.065 1.519 1.519 0 0 0 1.065.441 1.518 1.518 0 0 0 1.065-.441 1.521 1.521 0 0 0 .441-1.065 1.515 1.515 0 0 0-.441-1.065z" transform="translate(-382 220.33)" fill="#352fd9"/></clipPath><clipPath id="d"><path data-name="Path 2801" d="M384.572-137.559a1.518 1.518 0 0 0-1.065-.441 1.517 1.517 0 0 0-1.065.441 1.515 1.515 0 0 0-.441 1.065 1.517 1.517 0 0 0 .441 1.065 1.518 1.518 0 0 0 1.065.442 1.518 1.518 0 0 0 1.065-.442 1.517 1.517 0 0 0 .441-1.065 1.518 1.518 0 0 0-.441-1.065z" transform="translate(-382 138)" fill="#352fd9"/></clipPath><clipPath id="e"><path data-name="Path 2803" d="M384.572-59.618a1.518 1.518 0 0 0-1.065-.442 1.517 1.517 0 0 0-1.065.442 1.517 1.517 0 0 0-.442 1.065 1.518 1.518 0 0 0 .441 1.065 1.518 1.518 0 0 0 1.065.441 1.517 1.517 0 0 0 1.065-.441 1.518 1.518 0 0 0 .441-1.065 1.517 1.517 0 0 0-.44-1.065z" transform="translate(-382 60.06)" fill="#352fd9"/></clipPath><clipPath id="f"><path data-name="Path 2805" d="M454.352-471.149a1.515 1.515 0 0 0-1.065-.441 1.518 1.518 0 0 0-1.065.441 1.518 1.518 0 0 0-.441 1.065 1.518 1.518 0 0 0 .441 1.065 1.518 1.518 0 0 0 1.065.441 1.515 1.515 0 0 0 1.065-.441 1.518 1.518 0 0 0 .441-1.065 1.518 1.518 0 0 0-.441-1.065z" transform="translate(-451.78 471.59)" fill="#352fd9"/></clipPath><clipPath id="g"><path data-name="Path 2807" d="M366.922-347.559a1.518 1.518 0 0 0-1.065-.441 1.518 1.518 0 0 0-1.065.441 1.518 1.518 0 0 0-.441 1.065 1.518 1.518 0 0 0 .441 1.065 1.518 1.518 0 0 0 1.065.441 1.518 1.518 0 0 0 1.065-.441 1.518 1.518 0 0 0 .441-1.065 1.518 1.518 0 0 0-.441-1.065z" transform="translate(-364.35 348)" fill="#352fd9"/></clipPath><clipPath id="h"><path data-name="Path 2809" d="M178.007-368.551a1.507 1.507 0 0 0-1.507 1.507v1.431a1.507 1.507 0 0 0 1.507 1.507 1.507 1.507 0 0 0 1.507-1.507v-1.431a1.507 1.507 0 0 0-1.507-1.507z" transform="translate(-176.5 368.551)" fill="#352fd9"/></clipPath><clipPath id="i"><path data-name="Path 2811" d="M204.507-394.351a1.507 1.507 0 0 0-1.507 1.507v1.673a1.507 1.507 0 0 0 1.507 1.507 1.507 1.507 0 0 0 1.507-1.507v-1.673a1.507 1.507 0 0 0-1.507-1.507z" transform="translate(-203 394.351)" fill="#352fd9"/></clipPath></defs><g data-name="Group 3644" transform="translate(-477 -1232)"><circle data-name="Ellipse 65" cx="45" cy="45" r="45" transform="translate(485 1247)" fill="#e1e0f9"/><circle data-name="Ellipse 71" cx="24.5" cy="24.5" r="24.5" transform="translate(477 1232)" fill="#fdef00" opacity=".299"/><g data-name="Group 3619" opacity=".702"><g data-name="Group 3610" transform="translate(513.148 1299.71)" clip-path="url(#a)"><path data-name="Path 2794" d="M-.753 3.767h4.52v-4.52h-4.52z" fill="#352fd9"/></g><g data-name="Group 3611" transform="translate(491 1253.305)" clip-path="url(#b)"><path data-name="Path 2796" d="M-.753 77.894h78.647V-.753H-.753z" fill="#352fd9"/></g><g data-name="Group 3612" transform="translate(548.554 1297.25)" clip-path="url(#c)"><path data-name="Path 2798" d="M-.753 3.767h4.52v-4.52h-4.52z" fill="#352fd9"/></g><g data-name="Group 3613" transform="translate(548.554 1309.654)" clip-path="url(#d)"><path data-name="Path 2800" d="M-.753 3.767h4.52v-4.52h-4.52z" fill="#352fd9"/></g><g data-name="Group 3614" transform="translate(548.554 1321.397)" clip-path="url(#e)"><path data-name="Path 2802" d="M-.753 3.767h4.52v-4.52h-4.52z" fill="#352fd9"/></g><g data-name="Group 3615" transform="translate(559.068 1259.393)" clip-path="url(#f)"><path data-name="Path 2804" d="M-.753 3.767h4.52v-4.52h-4.52z" fill="#352fd9"/></g><g data-name="Group 3616" transform="translate(545.895 1278.014)" clip-path="url(#g)"><path data-name="Path 2806" d="M-.753 3.767h4.52v-4.52h-4.52z" fill="#352fd9"/></g><g data-name="Group 3617" transform="translate(517.592 1274.918)" clip-path="url(#h)"><path data-name="Path 2808" d="M-.753 5.198h4.52V-.753h-4.52z" fill="#352fd9"/></g><g data-name="Group 3618" transform="translate(521.585 1271.031)" clip-path="url(#i)"><path data-name="Path 2810" d="M-.753 5.439h4.52V-.753h-4.52z" fill="#352fd9"/></g></g></g></svg>