<svg xmlns="http://www.w3.org/2000/svg" width="98" height="105"><defs><clipPath id="a"><path data-name="Path 2836" d="M64.353-43.143a3.642 3.642 0 0 1-3.642-3.642A1.214 1.214 0 0 0 59.5-48a1.214 1.214 0 0 0-1.214 1.214 3.643 3.643 0 0 1-3.642 3.642A3.642 3.642 0 0 1 51-46.786 1.214 1.214 0 0 0 49.784-48a1.214 1.214 0 0 0-1.214 1.214 3.643 3.643 0 0 1-3.642 3.642 3.642 3.642 0 0 1-3.642-3.642A1.214 1.214 0 0 0 40.07-48a1.214 1.214 0 0 0-1.214 1.214 3.643 3.643 0 0 1-3.642 3.642 3.642 3.642 0 0 1-3.642-3.642A1.214 1.214 0 0 0 30.357-48a1.214 1.214 0 0 0-1.214 1.214 3.643 3.643 0 0 1-3.643 3.643 3.642 3.642 0 0 1-3.642-3.642A1.214 1.214 0 0 0 20.644-48a1.214 1.214 0 0 0-1.214 1.214 3.643 3.643 0 0 1-3.642 3.642 3.642 3.642 0 0 1-3.642-3.642A1.214 1.214 0 0 0 10.931-48a1.214 1.214 0 0 0-1.214 1.214 3.643 3.643 0 0 1-3.642 3.642 3.642 3.642 0 0 1-3.642-3.642A1.214 1.214 0 0 0 1.218-48 1.214 1.214 0 0 0 0-46.786a6.052 6.052 0 0 0 4.16 5.766 6.053 6.053 0 0 0 6.771-2.16 6.015 6.015 0 0 0 4.857 2.466 6.016 6.016 0 0 0 4.857-2.466 6.015 6.015 0 0 0 4.855 2.465 6.016 6.016 0 0 0 4.857-2.466 6.015 6.015 0 0 0 4.857 2.466 6.016 6.016 0 0 0 4.857-2.466 6.015 6.015 0 0 0 4.857 2.466 6.016 6.016 0 0 0 4.857-2.466 6.015 6.015 0 0 0 4.857 2.466 6.016 6.016 0 0 0 4.858-2.466 6.048 6.048 0 0 0 4.857 2.466 1.214 1.214 0 0 0 1.214-1.214 1.214 1.214 0 0 0-1.218-1.214z" transform="translate(-.004 48)" fill="none"/></clipPath><clipPath id="b"><path data-name="Path 2838" d="M296-99.143a1.214 1.214 0 0 0 1.214 1.214 4.826 4.826 0 0 0 3.642-1.678 4.791 4.791 0 0 0 3.642 1.678 4.793 4.793 0 0 0 3.642-1.678 4.824 4.824 0 0 0 3.642 1.678A1.214 1.214 0 0 0 313-99.143a1.214 1.214 0 0 0-1.214-1.214 2.428 2.428 0 0 1-2.428-2.428 1.214 1.214 0 0 0-1.213-1.215 1.214 1.214 0 0 0-1.214 1.214 2.428 2.428 0 0 1-2.428 2.428 2.428 2.428 0 0 1-2.428-2.428A1.214 1.214 0 0 0 300.86-104a1.214 1.214 0 0 0-1.214 1.214 2.428 2.428 0 0 1-2.428 2.428A1.214 1.214 0 0 0 296-99.143z" transform="translate(-296.004 104)" fill="none"/></clipPath><clipPath id="c"><path data-name="Path 2840" d="M444.86-104a1.214 1.214 0 0 0-1.214 1.214 2.428 2.428 0 0 1-2.428 2.428A1.214 1.214 0 0 0 440-99.143a1.214 1.214 0 0 0 1.214 1.214 4.857 4.857 0 0 0 4.857-4.857A1.214 1.214 0 0 0 444.86-104z" transform="translate(-440.004 104)" fill="#352fd9"/></clipPath><clipPath id="d"><path data-name="Path 2842" d="M203.646-102.786a2.428 2.428 0 0 1-2.428 2.428A1.214 1.214 0 0 0 200-99.143a1.214 1.214 0 0 0 1.214 1.214 4.826 4.826 0 0 0 3.642-1.678 4.836 4.836 0 0 0 5.357 1.372 4.835 4.835 0 0 0 3.142-4.551 1.214 1.214 0 0 0-1.21-1.214 1.214 1.214 0 0 0-1.214 1.214 2.428 2.428 0 0 1-2.428 2.428 2.428 2.428 0 0 1-2.428-2.428A1.214 1.214 0 0 0 204.86-104a1.214 1.214 0 0 0-1.214 1.214z" transform="translate(-200.004 104)" fill="#352fd9"/></clipPath><clipPath id="e"><path data-name="Path 2844" d="M57.218-97.929a4.826 4.826 0 0 0 3.642-1.678 4.791 4.791 0 0 0 3.64 1.678 4.793 4.793 0 0 0 3.642-1.678 4.836 4.836 0 0 0 5.358 1.372 4.835 4.835 0 0 0 3.142-4.551A1.214 1.214 0 0 0 75.43-104a1.214 1.214 0 0 0-1.214 1.214 2.428 2.428 0 0 1-2.428 2.428 2.428 2.428 0 0 1-2.428-2.428A1.214 1.214 0 0 0 68.145-104a1.214 1.214 0 0 0-1.214 1.214 2.428 2.428 0 0 1-2.428 2.428 2.428 2.428 0 0 1-2.428-2.428A1.214 1.214 0 0 0 60.86-104a1.214 1.214 0 0 0-1.214 1.214 2.428 2.428 0 0 1-2.428 2.428A1.214 1.214 0 0 0 56-99.143a1.214 1.214 0 0 0 1.218 1.214z" transform="translate(-56.004 104)" fill="#352fd9"/></clipPath><clipPath id="f"><path data-name="Path 2846" d="M53.917-435.108a13.4 13.4 0 0 0-12.635-9.059 13.261 13.261 0 0 0-9.973 4.493 22.34 22.34 0 0 0-1.725-.419 20.209 20.209 0 0 0-4.085-.431c-.486 0-1.007.029-1.542.074a24.416 24.416 0 0 1-.886-6.466 24.132 24.132 0 0 1 4.622-14.249l23.9 13.8a1.215 1.215 0 0 0 1.2.011 1.213 1.213 0 0 0 .626-1.018 19.4 19.4 0 0 0-5.277-14.075 19.4 19.4 0 0 0-13.747-6.08l1.336-.772 10.821-6.246a1.215 1.215 0 0 0 .607-1.029 1.216 1.216 0 0 0-.569-1.051 15.339 15.339 0 0 0-12.56-1.716 15.338 15.338 0 0 0-9.561 8.324 13.218 13.218 0 0 0-8.262-7.073 13.217 13.217 0 0 0-10.77 1.519 1.215 1.215 0 0 0-.569 1.051 1.214 1.214 0 0 0 .606 1.029l10.342 5.971a16.264 16.264 0 0 0-11.422 5.149 16.264 16.264 0 0 0-4.381 11.744 1.214 1.214 0 0 0 .626 1.018 1.213 1.213 0 0 0 1.2-.011l14.775-8.53a26.785 26.785 0 0 0-4.675 23.762 20.528 20.528 0 0 0-7.077 15.506c0 .146.009.288.019.43l.011.212a1.215 1.215 0 0 0 1.208 1.178h.037a1.214 1.214 0 0 0 1.178-1.248c0-.1-.009-.209-.017-.312s-.014-.172-.014-.261a18.107 18.107 0 0 1 5.5-13 26.789 26.789 0 0 0 2.285 4.547 1.215 1.215 0 0 0 1.676.379 1.216 1.216 0 0 0 .379-1.676 24.29 24.29 0 0 1-2.109-4.209H17a1.214 1.214 0 0 0 1.214-1.214A1.214 1.214 0 0 0 17-436.275h-2.786a24.43 24.43 0 0 1-.688-3.617h3.22a1.214 1.214 0 0 0 1.214-1.214 1.214 1.214 0 0 0-1.214-1.214h-3.378c0-.11-.012-.219-.012-.329a24.663 24.663 0 0 1 .228-3.339h2.2A1.214 1.214 0 0 0 17-447.2a1.214 1.214 0 0 0-1.214-1.214h-1.731A24.27 24.27 0 0 1 24.173-462.9c.04 0 .081.015.122.015a1.232 1.232 0 0 0 .331-.049l.958.554a26.745 26.745 0 0 0 2.733 34.239 1.215 1.215 0 0 0 1.705 0 1.215 1.215 0 0 0 .029-1.7 24.332 24.332 0 0 1-5.311-8.229c.256-.012.516-.027.759-.027a17.871 17.871 0 0 1 3.6.378 18.6 18.6 0 0 1 2.234.59 1.214 1.214 0 0 0 1.347-.4 10.908 10.908 0 0 1 10.715-4 10.907 10.907 0 0 1 8.4 7.766 1.215 1.215 0 0 0 .9.857 13.435 13.435 0 0 1 10.439 13.025c0 .1-.008.194-.015.29l-.014.267a1.214 1.214 0 0 0 1.163 1.264h.051a1.215 1.215 0 0 0 1.214-1.164l.011-.2c.011-.151.021-.3.021-.455a15.889 15.889 0 0 0-11.648-15.229zM42.5-463.826a16.954 16.954 0 0 1 8.43 13.28l-5.767-3.334 1.214-2.1a1.214 1.214 0 0 0 .005-1.219 1.214 1.214 0 0 0-1.055-.609 1.214 1.214 0 0 0-1.053.614l-1.214 2.1-3.157-1.821 1.214-2.1a1.213 1.213 0 0 0 .005-1.219 1.214 1.214 0 0 0-1.055-.609 1.215 1.215 0 0 0-1.053.614l-1.214 2.1-3.157-1.821 1.214-2.1a1.214 1.214 0 0 0 .006-1.219 1.214 1.214 0 0 0-1.056-.609 1.215 1.215 0 0 0-1.053.614l-1.214 2.1-5.464-3.157 1.646-.95a16.958 16.958 0 0 1 13.778 1.445zm-10.55-12a12.892 12.892 0 0 1 11.466-.719l-3.778 2.185-.807-1.4a1.215 1.215 0 0 0-1.655-.438 1.214 1.214 0 0 0-.448 1.652l.807 1.4L35.562-472l-.806-1.4a1.215 1.215 0 0 0-1.053-.614 1.213 1.213 0 0 0-1.056.609 1.213 1.213 0 0 0 .006 1.218l.806 1.4-1.978 1.142-.806-1.4a1.214 1.214 0 0 0-1.659-.445 1.215 1.215 0 0 0-.445 1.659l.806 1.4-1.671.964a19.555 19.555 0 0 0-2.009.818c0-.026-.009-.05-.011-.075a12.872 12.872 0 0 1 6.269-9.1zm-14.035 1.096a10.814 10.814 0 0 1 5.283 7.673l-4.857-2.8.925-1.6a1.212 1.212 0 0 0 .005-1.219 1.214 1.214 0 0 0-1.055-.609 1.215 1.215 0 0 0-1.053.614l-.926 1.6-1.378-.8.925-1.6a1.214 1.214 0 0 0-.449-1.651 1.213 1.213 0 0 0-1.654.437l-.933 1.6-4.122-2.382a10.817 10.817 0 0 1 9.288.738zm-8.566 10.484a13.824 13.824 0 0 1 12.446-.708l-4.233 2.454-.9-1.56a1.213 1.213 0 0 0-1.662-.445 1.215 1.215 0 0 0-.445 1.659l.9 1.56-2.249 1.292-.9-1.56a1.214 1.214 0 0 0-1.654-.446 1.215 1.215 0 0 0-.445 1.659l.9 1.56-2.244 1.3-.9-1.559a1.215 1.215 0 0 0-1.659-.445 1.215 1.215 0 0 0-.445 1.659l.9 1.559-4.238 2.446a13.822 13.822 0 0 1 6.828-10.425z" transform="translate(0 479.981)" fill="#352fd9"/></clipPath><clipPath id="g"><path data-name="Path 2848" d="M361.218-421.572a2.428 2.428 0 0 1 2.428 2.428 1.214 1.214 0 0 0 1.214 1.214 1.214 1.214 0 0 0 1.214-1.214 2.428 2.428 0 0 1 2.428-2.428 1.214 1.214 0 0 0 1.214-1.214A1.214 1.214 0 0 0 368.5-424a4.845 4.845 0 0 0-3.642 1.647 4.847 4.847 0 0 0-3.64-1.647 1.214 1.214 0 0 0-1.218 1.214 1.214 1.214 0 0 0 1.218 1.214z" transform="translate(-360.004 424)" fill="#352fd9"/></clipPath><clipPath id="h"><path data-name="Path 2850" d="M420.86-361.929a1.214 1.214 0 0 0 1.214-1.214 2.428 2.428 0 0 1 2.428-2.428 1.214 1.214 0 0 0 1.214-1.214A1.214 1.214 0 0 0 424.5-368a4.845 4.845 0 0 0-3.642 1.647 4.847 4.847 0 0 0-3.64-1.647 1.214 1.214 0 0 0-1.218 1.214 1.214 1.214 0 0 0 1.214 1.214 2.428 2.428 0 0 1 2.428 2.428 1.214 1.214 0 0 0 1.218 1.215z" transform="translate(-416.004 368)" fill="#352fd9"/></clipPath><clipPath id="i"><path data-name="Path 2852" d="M409.218-477.572a2.428 2.428 0 0 1 2.428 2.428 1.214 1.214 0 0 0 1.214 1.214 1.214 1.214 0 0 0 1.214-1.214 2.428 2.428 0 0 1 2.428-2.428 1.214 1.214 0 0 0 1.214-1.214A1.214 1.214 0 0 0 416.5-480a4.845 4.845 0 0 0-3.642 1.647 4.847 4.847 0 0 0-3.64-1.647 1.214 1.214 0 0 0-1.218 1.214 1.214 1.214 0 0 0 1.218 1.214z" transform="translate(-408.004 480)" fill="#352fd9"/></clipPath><clipPath id="j"><path data-name="Path 2854" d="M226.432-182.778a1.214 1.214 0 0 1-1.214 1.214 1.214 1.214 0 0 1-1.218-1.214 1.214 1.214 0 0 1 1.214-1.214 1.214 1.214 0 0 1 1.218 1.214z" transform="translate(-224.004 183.992)" fill="#352fd9"/></clipPath><clipPath id="k"><path data-name="Path 2856" d="M298.432-166.778a1.214 1.214 0 0 1-1.214 1.214 1.214 1.214 0 0 1-1.218-1.214 1.214 1.214 0 0 1 1.214-1.214 1.214 1.214 0 0 1 1.218 1.214z" transform="translate(-296.004 167.992)" fill="#352fd9"/></clipPath></defs><g data-name="Group 3645" transform="translate(-907 -1232)"><circle data-name="Ellipse 66" cx="45" cy="45" r="45" transform="translate(915 1247)" fill="#e1e0f9"/><circle data-name="Ellipse 68" cx="24.5" cy="24.5" r="24.5" transform="translate(907 1232)" fill="#fdef00" opacity=".299"/><g data-name="Group 3643" opacity=".698"><g data-name="Group 3632" transform="translate(923.695 1321.025)" clip-path="url(#a)"><path data-name="Path 2835" d="M-.763 8.041h67.085v-8.8H-.763z" fill="#352fd9"/></g><g data-name="Group 3633" transform="translate(968.618 1312.526)" clip-path="url(#b)"><path data-name="Path 2837" d="M-.763 6.829h18.52V-.759H-.763z" fill="#352fd9"/></g><g data-name="Group 3634" transform="translate(990.473 1312.526)" clip-path="url(#c)"><path data-name="Path 2839" d="M-.763 6.829h7.588V-.759H-.763z" fill="#352fd9"/></g><g data-name="Group 3635" transform="translate(954.048 1312.526)" clip-path="url(#d)"><path data-name="Path 2841" d="M-.763 6.83H14.11V-.759H-.763z" fill="#352fd9"/></g><g data-name="Group 3636" transform="translate(932.194 1312.526)" clip-path="url(#e)"><path data-name="Path 2843" d="M-.763 6.83h22.162V-.759H-.763z" fill="#352fd9"/></g><g data-name="Group 3637" transform="translate(923.694 1255.464)" clip-path="url(#f)"><path data-name="Path 2845" d="M-.759 62.677h67.085V-.759H-.759z" fill="#352fd9"/></g><g data-name="Group 3638" transform="translate(978.331 1263.96)" clip-path="url(#g)"><path data-name="Path 2847" d="M-.763 6.829h11.231V-.759H-.763z" fill="#352fd9"/></g><g data-name="Group 3639" transform="translate(986.83 1272.459)" clip-path="url(#h)"><path data-name="Path 2849" d="M-.763 6.829h11.231V-.759H-.763z" fill="#352fd9"/></g><g data-name="Group 3640" transform="translate(985.616 1255.461)" clip-path="url(#i)"><path data-name="Path 2851" d="M-.763 6.829h11.231V-.759H-.763z" fill="#352fd9"/></g><g data-name="Group 3641" transform="translate(957.691 1300.385)" clip-path="url(#j)"><path data-name="Path 2853" d="M-.763 3.187h3.946V-.759H-.763z" fill="#352fd9"/></g><g data-name="Group 3642" transform="translate(968.618 1302.814)" clip-path="url(#k)"><path data-name="Path 2855" d="M-.763 3.187h3.946V-.759H-.763z" fill="#352fd9"/></g></g></g></svg>