<svg xmlns="http://www.w3.org/2000/svg" width="120.227" height="48.245"><defs><clipPath id="a"><path data-name="Path 8054" d="M1.173-7.268L107.756-7.7l-.733-22.781-104.511.215z" transform="translate(-1.173 30.481)" fill="#fdef00" clip-rule="evenodd"/></clipPath><clipPath id="b"><path data-name="Path 8056" d="M1.017-12.158l.006-.148.006.151zM42.6-29.739l-.042-.013 1.908-.006.045.016zM7.1-6.08l.817.019c-.2 0-.408.013-.61.013S6.9-6.056 6.7-6.061zm31.6.6c-2.653.051-3.174.054-5.79.032 3.424-.064 3.424-.064 5.79-.036zm43.8-.292l-2.7-.1c-.437-.019-.4-.045.364-.056.576-.008 1.364-.006 2.054 0 .243 0 .593.008.694.014.639.043 1.289.085 1.767.129.1.01-.487.025-.782.039-.642-.018-1.144-.021-1.397-.03zm-35.012.334c3.292-.049 6.9-.059 10.5-.068.3 0 .843.012.935.022s-.17.029-.44.032c-3.368.039-6.811.071-10.457.08-.55 0-1.128-.009-2.551-.02zm-6.1-25.151l4.962-.011c.522 0 1.128.009 1.565.018a7.7 7.7 0 0 1-1.406.037l-4.034.019c-1.651.006-3.317.012-5.178-.011l-1.262-.106c.759-.011 1.284-.024 1.825-.025l15-.012c.37 0 .748.01 1.364.019-1.342.05-3.111.034-4.646.037H45.03c-1.607 0-3.263-.005-5.447.018zm32.027 25.32c-.943 0-1.453-.035-.905-.058 1.4-.059 3.879-.058 5.042 0 .282.015.435.032.652.048h10.937c3.224-.011 5.028-.083 4.423-.175-.085-.013-.3-.025-.362-.038q-.332-.069 1.909-.092l2.664-.016c1.384-.012 1.882-.054.935-.082l-5.591-.157-4.37.043-2.14-.14c4.729-.134 9.659-.234 16.508-.221 2.277 0 4.435-.044 5.219-.1a5.142 5.142 0 0 0-1.155-.048h-1.344l-13.008.062c-2.583.013-5.073.005-7.931-.021.5-.024.707-.048 1.211-.056l4.253-.045 4.284-.043c.925-.011 1.078-.045.417-.066-1.242-.04-2.792-.055-4.522-.037-1.413.015-2.782.035-4.059.058a383.71 383.71 0 0 1-6.822.067c-5.385 0-10.376.063-15.634.083-1.41.005-2.624.018-3.367.058-.878.047-2.529.064-4.139.074l-6.743.031h-.887c-.437-.009-1.123-.023-1.085-.033s.626-.031 1.1-.035c.689-.007 1.506-.006 2.242 0 2.293.009 3.79-.018 4.742-.077.25-.016.659-.029.973-.042 4.563-.008 8.022-.081 11.553-.148.539-.01 1.585-.03.73-.066L66.4-6.5c-.788.013-1.594.032-2.428.033-3.245.007-6.127.048-9.185.072l-3.987.031c-1.866.012-3.306 0-3.928-.059a15.3 15.3 0 0 0-.673-.034c-1.153-.042-2.274-.048-4-.027-2.579.032-4.87.072-5.986.151-.685.049-2.042.073-3.706.089-4.985.049-9.745.121-15.177.125l-.887.006a232.08 232.08 0 0 1-6.133-.009c-1.7-.027-3.582-.022-5.1.017a90.44 90.44 0 0 1-1.718.029l-1.2.007c0-.11 0-.223.006-.34 0-.279.006-.566.008-.852v-.964a30.637 30.637 0 0 0-.056-1.692c-.1-1.461-.116-3.029-.11-4.767 0-.444-.006-.9-.009-1.339-.047-2.925-.039-5.886-.045-8.841v-4.879h4.698l5.16-.014c1.149-.005 2.448 0 3.571.012.527.005 1 .031 1.11.05.066.011-.525.031-.982.038-.773.013-1.964.012-2.469.029-1.963.067-4.958.081-7.23.133l-2.174-.018H2.482l.016.952a60.73 60.73 0 0 1-.038 3.666c-.062 1.452-.041 2.97-.023 4.476a2.392 2.392 0 0 0 .094.945c.172.046.249-.826.253-2.815v-.805l-.044-6.105a1.912 1.912 0 0 1-.063-.2 6.02 6.02 0 0 1 .444-.047c.309-.007.6-.012.911-.014.622 0 1.319 0 2.383.02 1.849.03 3.731.032 5.716.032 2.577 0 5.2-.007 7.721 0 3.662.017 7.236.016 10.866 0l9.02-.035 11.785-.028h24.145l-.357-.072c1.386-.029 2.929-.038 4.643-.042l9.013-.029c4.966-.015 9.832-.047 14.918-.041h3.874v10.953c0 1.432.008 2.868-.034 4.26-.01.317-.006.707 0 1.06 0 .553.056.9.1.679a9.881 9.881 0 0 0 .1-2.108c-.031-1.565-.02-3 .036-4.442.011-.291.021-.8.009-.976a8.9 8.9 0 0 1 .022-1.557c.045-.57.034-1.321.021-2.041-.017-.866-.045-1.748-.042-2.608q0-1.674.008-3.346l-13.528.005H62.117c-1.655 0-3.228-.015-4.852.009-.632.009-1.5 0-1.813-.033.435-.007.893-.02 1.4-.022l15.784-.062 35.348-.064h.272l.081 9.1a36.006 36.006 0 0 0 .243 4.546 13.306 13.306 0 0 1 .115 1.566l.112 3.048c.034-.411.061-.607.071-.892.043-1.11.105-1.683.211-1.46.064.134.111-.24.159-.752.054-.588.116-1.1.207-1l.034 1.531.06 6.409c.022 2.368.088 2.741.263 1.508l.061-.611-.025-2.6-.046-3.174c0-4.173-.12-8.07-.184-12.093-.018-1.132-.039-1.2-.173-.857l-.043-2.164-.033-2.761-6.453.014-5.557-.008c-.411-.017-.87-.03-1.064-.046-.627-.051-1.955-.062-3.609-.06h-4.983l-4.977.005c-1.716.008-3.3.005-4.916-.011-3-.03-5.9-.036-8.4.043-1.677-.043-2.634-.127-5.567-.071l1.166.054c-2.244.031-4.4.04-6.589.006-2.212-.035-4.5-.038-7.01-.036-4 0-8.021-.013-9.524-.151-.071-.006-.468-.01-.953-.02h-2.008c-6.906 0-13.3.079-20.07.1l-4.89.027c-1.918 0-3.761.016-5.578.031l-5.529.047-2.337.012.042 2.012.047 1.344c.032.892.065 1.779.1 2.677a16.186 16.186 0 0 0 .214 2.331 8.429 8.429 0 0 1 .069.927l.065 2.833.033 3.187a6.052 6.052 0 0 1-.11 1.7 5.175 5.175 0 0 0-.144 1.121c-.009.09-.028.036-.062.064L.708-13.7c-.03.318-.06.49-.059.657 0 1.47-.046 2.991.034 4.4.024.427.035.992.044 1.514l.03.993c.014.376.032.687.052.963l.503-.027c.293-.008 1.15-.008 1.78-.012.11.02.151.038.152.054s-.033.03-.2.042c-.372.025-1.153.044-2.463.059l-.032-1.1C.542-6.765.528-7.458.514-8.123A41.334 41.334 0 0 0 .4-11.224L.311-12.76c-.016-.244-.041-.4-.065-.614-.062.848-.036 1.717-.023 2.417l.046 2.64.04 3.427 9.815-.035L11-4.93l12.624-.047c4.092-.011 8.133-.018 11.9-.074 1.576-.023 3.425-.032 5.2-.047 3.512.083 7.538.077 11.352.046 4.17-.033 8.371-.037 12.595-.048l10.78-.048a23.106 23.106 0 0 0 2.577-.079c.076-.017.195-.034.294-.052l-4.91.01z" transform="translate(-.204 30.889)" fill="#fdef00" clip-rule="evenodd"/></clipPath></defs><g data-name="Group 6290"><text transform="translate(20.227 42.245)" fill="#c6c6c6" font-size="16" font-family="Poppins-Bold, Poppins" font-weight="700"><tspan x="0" y="0">SQUAREFEET</tspan></text><g data-name="Group 6289"><g data-name="Group 6287" transform="translate(1.836 3.286)" clip-path="url(#a)"><path data-name="Path 8053" d="M-6.774 28.594h118.165v-32.25H-6.774z" fill="#fdef00"/></g><g data-name="Group 6288" transform="translate(.014 1.909)" clip-path="url(#b)"><path data-name="Path 8055" d="M-5.004 30.238h119.675V-4.238H-5.004z" fill="#fdef00"/></g></g><text transform="translate(11.227 19.245)" fill="#191919" font-size="16" font-family="Poppins-Bold, Poppins" font-weight="700"><tspan x="0" y="0">CONCRETE</tspan></text></g></svg>